<svg width="21" height="22" viewBox="0 0 21 22" fill="none" xmlns="http://www.w3.org/2000/svg">
<path d="M12.5 11L8.5 7V10H0.5V12H8.5V15M20.5 11C20.5005 13.3895 19.6453 15.7002 18.0893 17.5137C16.5333 19.3271 14.3794 20.5235 12.0175 20.8861C9.65569 21.2487 7.24208 20.7536 5.21373 19.4905C3.18538 18.2273 1.67639 16.2796 0.96 14H3.09C3.7862 15.7211 5.05932 17.1464 6.69117 18.0317C8.32301 18.9171 10.212 19.2073 12.0343 18.8527C13.8567 18.4981 15.499 17.5206 16.6797 16.088C17.8605 14.6553 18.5062 12.8565 18.5062 11C18.5062 9.14345 17.8605 7.34471 16.6797 5.91203C15.499 4.47935 13.8567 3.50194 12.0343 3.1473C10.212 2.79267 8.32301 3.0829 6.69117 3.96825C5.05932 4.85359 3.7862 6.27893 3.09 8H0.96C1.67639 5.7204 3.18538 3.77268 5.21373 2.50952C7.24208 1.24636 9.65569 0.751262 12.0175 1.11388C14.3794 1.47649 16.5333 2.67285 18.0893 4.48632C19.6453 6.29979 20.5005 8.61048 20.5 11Z" fill="white"/>
</svg>
