<svg width="12" height="13" viewBox="0 0 12 13" fill="none" xmlns="http://www.w3.org/2000/svg">
<path d="M0.927248 1.31929V11.6793C0.927248 12.4693 1.79725 12.9493 2.46725 12.5193L10.6072 7.33929C10.7498 7.2491 10.8671 7.12434 10.9485 6.9766C11.0298 6.82886 11.0725 6.66295 11.0725 6.49429C11.0725 6.32564 11.0298 6.15973 10.9485 6.01199C10.8671 5.86425 10.7498 5.73948 10.6072 5.64929L2.46725 0.479294C2.31642 0.381739 2.14205 0.326701 1.96254 0.319988C1.78304 0.313274 1.60505 0.355134 1.44735 0.44115C1.28965 0.527167 1.1581 0.654152 1.06656 0.808708C0.975016 0.963265 0.926887 1.13966 0.927248 1.31929Z" fill="white"/>
</svg>
